<svg width="24" height="25" viewBox="0 0 24 25" fill="none" xmlns="http://www.w3.org/2000/svg">
<path fill-rule="evenodd" clip-rule="evenodd" d="M12 0C5.38125 0 0 5.60547 0 12.5C0 19.3945 5.38125 25 12 25C18.6187 25 24 19.3945 24 12.5C24 5.60547 18.6187 0 12 0Z" fill="#131313"/>
<path fill-rule="evenodd" clip-rule="evenodd" d="M16.7815 17.48C16.4893 17.7845 16.0086 17.7845 15.7165 17.48L12.4979 14.1258L9.28412 17.48C8.99195 17.7845 8.51129 17.7845 8.21912 17.48C7.92696 17.1755 7.92696 16.6746 8.21912 16.3701L11.4377 13.0208L8.21912 9.67158C7.92696 9.3671 7.92696 8.86618 8.21912 8.5617C8.51129 8.25722 8.99195 8.25722 9.28412 8.5617L12.4979 11.911L15.7118 8.5617C16.0039 8.25722 16.4846 8.25722 16.7767 8.5617C17.0689 8.86618 17.0689 9.3671 16.7767 9.67158L13.5629 13.0159L16.7767 16.3652C17.0736 16.6746 17.0736 17.1706 16.7815 17.48Z" fill="white"/>
</svg>
