<svg width="24" height="25" viewBox="0 0 24 25" fill="none" xmlns="http://www.w3.org/2000/svg">
<path fill-rule="evenodd" clip-rule="evenodd" d="M12 0C5.38125 0 0 5.60547 0 12.5C0 19.3945 5.38125 25 12 25C18.6187 25 24 19.3945 24 12.5C24 5.60547 18.6187 0 12 0Z" fill="#BDBDBD"/>
<path fill-rule="evenodd" clip-rule="evenodd" d="M16.7815 17.4801C16.4893 17.7846 16.0086 17.7846 15.7165 17.4801L12.4979 14.126L9.28412 17.4801C8.99195 17.7846 8.51129 17.7846 8.21912 17.4801C7.92696 17.1757 7.92696 16.6747 8.21912 16.3703L11.4377 13.021L8.21912 9.67173C7.92696 9.36725 7.92696 8.86633 8.21912 8.56186C8.51129 8.25738 8.99195 8.25738 9.28412 8.56186L12.4979 11.9111L15.7118 8.56186C16.0039 8.25738 16.4846 8.25738 16.7767 8.56186C17.0689 8.86633 17.0689 9.36725 16.7767 9.67173L13.5629 13.0161L16.7767 16.3654C17.0736 16.6747 17.0736 17.1707 16.7815 17.4801Z" fill="white"/>
</svg>
